<svg width="100" height="80" viewBox="0 0 100 80" fill="none" xmlns="http://www.w3.org/2000/svg">
  <defs>
    <linearGradient id="am1" x1="0" y1="0" x2="0" y2="1"><stop offset="0%" stop-color="#F4B860"/><stop offset="100%" stop-color="#C44E2A"/></linearGradient>
  </defs>
  <path d="M50 6 C 26 18, 8 36, 6 76 C 32 64, 68 64, 94 76 C 92 36, 74 18, 50 6 Z" fill="url(#am1)" stroke="#7A2E1E" stroke-width="1.2" stroke-linejoin="round" opacity=".95"/>
  <g fill="#7A2E1E" opacity=".85">
    <path d="M28 36 L 30 30 L 34 32 L 32 26 L 36 28 L 34 22 L 38 24 L 36 18 L 40 20 L 38 14 L 42 18 L 40 12 L 44 14 L 32 38 Z" transform="translate(-4,8)"/>
    <path d="M68 50 L 70 44 L 74 46 L 72 40 L 76 42 L 74 36 L 78 38 L 76 32 L 80 34 L 78 28 L 82 30 L 80 24 L 84 26 L 72 50 Z" transform="translate(-4,4)"/>
  </g>
</svg>
