<svg width="100" height="80" viewBox="0 0 100 80" fill="none" xmlns="http://www.w3.org/2000/svg">
  <defs>
    <linearGradient id="cap1" x1="0" y1="0" x2="0" y2="1">
      <stop offset="0%" stop-color="#3A4F8A"/>
      <stop offset="100%" stop-color="#1B254A"/>
    </linearGradient>
  </defs>
  <path d="M50 6 C 30 12, 10 30, 6 74 C 30 64, 70 64, 94 74 C 90 30, 70 12, 50 6 Z" fill="url(#cap1)" stroke="#11183A" stroke-width="1.3" stroke-linejoin="round"/>
  <path d="M50 6 L 50 64" stroke="#2A3766" stroke-width="1" opacity=".6"/>
  <circle cx="22" cy="40" r="1.4" fill="#FFE89C"/>
  <circle cx="34" cy="56" r="1.2" fill="#FFE89C"/>
  <circle cx="68" cy="48" r="1.4" fill="#FFE89C"/>
  <circle cx="80" cy="40" r="1.2" fill="#FFE89C"/>
  <circle cx="56" cy="64" r="1.2" fill="#FFE89C"/>
  <path d="M44 32 L 45 35 L 48 36 L 45 37 L 44 40 L 43 37 L 40 36 L 43 35 Z" fill="#FFF3B8"/>
</svg>
