<svg width="120" height="120" viewBox="0 0 120 120" fill="none" xmlns="http://www.w3.org/2000/svg">
  <defs>
    <linearGradient id="ck1" x1="0" y1="0" x2="0" y2="1"><stop offset="0%" stop-color="#FFE0EC"/><stop offset="100%" stop-color="#F4A8C8"/></linearGradient>
  </defs>
  <path d="M60 8 C 30 24, 10 60, 12 116 C 40 100, 80 100, 108 116 C 110 60, 90 24, 60 8 Z" fill="url(#ck1)" stroke="#C85577" stroke-width="1.2" stroke-linejoin="round"/>
  <path d="M60 8 L 60 100" stroke="#C85577" stroke-width="1" opacity=".6"/>
  <g fill="#FFFFFF" stroke="#C85577" stroke-width=".6">
    <path d="M30 50 m -3 0 a 3 3 0 1 1 6 0 a 3 3 0 1 1 -6 0"/>
    <path d="M82 60 m -3 0 a 3 3 0 1 1 6 0 a 3 3 0 1 1 -6 0"/>
    <path d="M44 76 m -2.5 0 a 2.5 2.5 0 1 1 5 0 a 2.5 2.5 0 1 1 -5 0"/>
    <path d="M70 86 m -3 0 a 3 3 0 1 1 6 0 a 3 3 0 1 1 -6 0"/>
    <path d="M22 80 m -2.5 0 a 2.5 2.5 0 1 1 5 0 a 2.5 2.5 0 1 1 -5 0"/>
    <path d="M94 90 m -2.5 0 a 2.5 2.5 0 1 1 5 0 a 2.5 2.5 0 1 1 -5 0"/>
  </g>
</svg>
